<?xml version="1.0" encoding="utf-8"?>
<!-- Generator: Adobe Illustrator 16.0.0, SVG Export Plug-In . SVG Version: 6.00 Build 0)  -->
<!DOCTYPE svg PUBLIC "-//W3C//DTD SVG 1.1//EN" "http://www.w3.org/Graphics/SVG/1.1/DTD/svg11.dtd">
<svg version="1.1" id="Layer_1" xmlns="http://www.w3.org/2000/svg" xmlns:xlink="http://www.w3.org/1999/xlink" x="0px" y="0px"
	 width="30px" height="30px" viewBox="0 0 30 30" enable-background="new 0 0 30 30" xml:space="preserve">
<rect x="0.219" y="32.188" fill="#6B6BC1" width="30" height="30"/>
<g>
	<path fill="#FFFFFF" d="M52.352,8.945c4.73,0,8.564,3.818,8.564,8.526c0,4.711-3.834,8.527-8.564,8.527s-8.564-3.816-8.564-8.527
		C43.787,12.763,47.621,8.945,52.352,8.945z"/>
</g>
<path fill="none" stroke="#FFFFFF" stroke-width="2" stroke-miterlimit="10" d="M12.048,4.324C7.351,5.617,3.901,9.918,3.901,15.026
	c0,6.129,4.969,11.099,11.099,11.099c6.129,0,11.099-4.97,11.099-11.099c0-2.604-2.333-6.964-2.333-6.964l5.203,1.75l-5.203-1.75
	l-1.392,5.562"/>
</svg>
